<svg id="visual" viewBox="0 0 900 600" width="900" height="600" xmlns="http://www.w3.org/2000/svg" xmlns:xlink="http://www.w3.org/1999/xlink" version="1.1"><rect x="0" y="0" width="900" height="600" fill="#f5f5f5"></rect><path d="M236 0L294 150L278 300L295 450L293 600L0 600L0 450L0 300L0 150L0 0Z" fill="#30475e"></path><path d="M202 0L179 150L197 300L215 450L169 600L0 600L0 450L0 300L0 150L0 0Z" fill="#5d5186"></path><path d="M143 0L189 150L125 300L171 450L185 600L0 600L0 450L0 300L0 150L0 0Z" fill="#aa4b8b"></path><path d="M128 0L86 150L139 300L112 450L108 600L0 600L0 450L0 300L0 150L0 0Z" fill="#e84862"></path><path d="M58 0L39 150L65 300L48 450L59 600L0 600L0 450L0 300L0 150L0 0Z" fill="#f5730a"></path></svg>