<svg id="visual" viewBox="0 0 900 600" width="900" height="600" xmlns="http://www.w3.org/2000/svg" xmlns:xlink="http://www.w3.org/1999/xlink" version="1.1"><rect x="0" y="0" width="900" height="600" fill="#f5f5f5"></rect><path d="M0 358L225 372L450 399L675 378L900 439L900 601L675 601L450 601L225 601L0 601Z" fill="#30475e"></path><path d="M0 470L225 404L450 417L675 466L900 416L900 601L675 601L450 601L225 601L0 601Z" fill="#5d5186"></path><path d="M0 438L225 499L450 482L675 477L900 504L900 601L675 601L450 601L225 601L0 601Z" fill="#aa4b8b"></path><path d="M0 506L225 487L450 510L675 503L900 511L900 601L675 601L450 601L225 601L0 601Z" fill="#e84862"></path><path d="M0 569L225 561L450 532L675 566L900 527L900 601L675 601L450 601L225 601L0 601Z" fill="#f5730a"></path></svg>