<svg id="visual" viewBox="0 0 900 600" width="900" height="600" xmlns="http://www.w3.org/2000/svg" xmlns:xlink="http://www.w3.org/1999/xlink" version="1.1"><rect x="0" y="0" width="900" height="600" fill="#f5f5f5"></rect><path d="M474 0L369 150L388 300L362 450L402 600L0 600L0 450L0 300L0 150L0 0Z" fill="#f3af98"></path><path d="M399 0L371 150L411 300L359 450L284 600L0 600L0 450L0 300L0 150L0 0Z" fill="#f4a388"></path><path d="M321 0L354 150L283 300L263 450L294 600L0 600L0 450L0 300L0 150L0 0Z" fill="#f59878"></path><path d="M263 0L285 150L206 300L223 450L203 600L0 600L0 450L0 300L0 150L0 0Z" fill="#f58c68"></path><path d="M176 0L214 150L157 300L234 450L198 600L0 600L0 450L0 300L0 150L0 0Z" fill="#f48058"></path><path d="M175 0L112 150L147 300L121 450L134 600L0 600L0 450L0 300L0 150L0 0Z" fill="#f37348"></path><path d="M70 0L58 150L90 300L77 450L84 600L0 600L0 450L0 300L0 150L0 0Z" fill="#f16638"></path></svg>