<svg id="visual" viewBox="0 0 900 600" width="900" height="600" xmlns="http://www.w3.org/2000/svg" xmlns:xlink="http://www.w3.org/1999/xlink" version="1.1"><rect x="0" y="0" width="900" height="600" fill="#f5f5f5"></rect><path d="M507 0L478 150L420 300L464 450L337 600L0 600L0 450L0 300L0 150L0 0Z" fill="#30475e"></path><path d="M271 0L410 150L384 300L280 450L384 600L0 600L0 450L0 300L0 150L0 0Z" fill="#5d5186"></path><path d="M338 0L212 150L247 300L258 450L200 600L0 600L0 450L0 300L0 150L0 0Z" fill="#aa4b8b"></path><path d="M196 0L236 150L188 300L203 450L186 600L0 600L0 450L0 300L0 150L0 0Z" fill="#e84862"></path><path d="M63 0L82 150L142 300L71 450L152 600L0 600L0 450L0 300L0 150L0 0Z" fill="#f5730a"></path></svg>