<svg id="visual" viewBox="0 0 900 600" width="900" height="600" xmlns="http://www.w3.org/2000/svg" xmlns:xlink="http://www.w3.org/1999/xlink" version="1.1"><rect x="0" y="0" width="900" height="600" fill="#f5f5f5"></rect><path d="M456 0L425 150L363 300L431 450L382 600L0 600L0 450L0 300L0 150L0 0Z" fill="#f5730a"></path><path d="M275 0L267 150L303 300L270 450L343 600L0 600L0 450L0 300L0 150L0 0Z" fill="#e84862"></path><path d="M226 0L281 150L268 300L214 450L264 600L0 600L0 450L0 300L0 150L0 0Z" fill="#aa4b8b"></path><path d="M214 0L194 150L216 300L209 450L184 600L0 600L0 450L0 300L0 150L0 0Z" fill="#5d5186"></path><path d="M78 0L78 150L69 300L133 450L70 600L0 600L0 450L0 300L0 150L0 0Z" fill="#30475e"></path></svg>