<svg id="visual" viewBox="0 0 900 600" width="900" height="600" xmlns="http://www.w3.org/2000/svg" xmlns:xlink="http://www.w3.org/1999/xlink" version="1.1"><path d="M0 73L180 73L360 97L540 85L720 49L900 37L900 0L720 0L540 0L360 0L180 0L0 0Z" fill="#f5730a"></path><path d="M0 283L180 283L360 193L540 169L720 175L900 259L900 35L720 47L540 83L360 95L180 71L0 71Z" fill="#e84862"></path><path d="M0 361L180 367L360 415L540 379L720 385L900 397L900 257L720 173L540 167L360 191L180 281L0 281Z" fill="#aa4b8b"></path><path d="M0 469L180 457L360 463L540 499L720 517L900 439L900 395L720 383L540 377L360 413L180 365L0 359Z" fill="#5d5186"></path><path d="M0 601L180 601L360 601L540 601L720 601L900 601L900 437L720 515L540 497L360 461L180 455L0 467Z" fill="#30475e"></path></svg>