<svg id="visual" viewBox="0 0 900 600" width="900" height="600" xmlns="http://www.w3.org/2000/svg" xmlns:xlink="http://www.w3.org/1999/xlink" version="1.1"><path d="M791 600L791 480L755 360L773 240L827 120L845 0L900 0L900 120L900 240L900 360L900 480L900 600Z" fill="#30475e"></path><path d="M476 600L476 480L611 360L647 240L638 120L512 0L846 0L828 120L774 240L756 360L792 480L792 600Z" fill="#5d5186"></path><path d="M359 600L350 480L278 360L332 240L323 120L305 0L513 0L639 120L648 240L612 360L477 480L477 600Z" fill="#aa4b8b"></path><path d="M197 600L215 480L206 360L152 240L125 120L242 0L306 0L324 120L333 240L279 360L351 480L360 600Z" fill="#e84862"></path><path d="M0 600L0 480L0 360L0 240L0 120L0 0L243 0L126 120L153 240L207 360L216 480L198 600Z" fill="#f5730a"></path></svg>